<?xml version="1.0" standalone="no"?><!DOCTYPE svg PUBLIC "-//W3C//DTD SVG 1.1//EN" "http://www.w3.org/Graphics/SVG/1.1/DTD/svg11.dtd"><svg t="1714407631104" class="icon" viewBox="0 0 1024 1024" version="1.1" xmlns="http://www.w3.org/2000/svg" p-id="10005" xmlns:xlink="http://www.w3.org/1999/xlink" width="200" height="200"><path d="M928 256h-160V160c0-53-43-96-96-96H352c-53 0-96 43-96 96v96H96c-53 0-96 43-96 96v576c0 53 43 96 96 96h832c53 0 96-43 96-96V352c0-53-43-96-96-96zM384 192h256v64H384V192z m320 496c0 8.8-7.2 16-16 16h-112v112c0 8.8-7.2 16-16 16h-96c-8.8 0-16-7.2-16-16v-112h-112c-8.8 0-16-7.2-16-16v-96c0-8.8 7.2-16 16-16h112v-112c0-8.8 7.2-16 16-16h96c8.8 0 16 7.2 16 16v112h112c8.8 0 16 7.2 16 16v96z" fill="" p-id="10006"></path></svg>