<?xml version="1.0" standalone="no"?><!DOCTYPE svg PUBLIC "-//W3C//DTD SVG 1.1//EN" "http://www.w3.org/Graphics/SVG/1.1/DTD/svg11.dtd"><svg t="1714407598918" class="icon" viewBox="0 0 1151 1024" version="1.1" xmlns="http://www.w3.org/2000/svg" p-id="7624" xmlns:xlink="http://www.w3.org/1999/xlink" width="224.8046875" height="200"><path d="M319.907624 351.876293h127.955016v127.955016a31.988754 31.988754 0 0 0 31.988754 31.988754h127.955015a31.988754 31.988754 0 0 0 31.988754-31.988754v-127.955016h127.955016a31.988754 31.988754 0 0 0 31.988754-31.988753v-127.955016a31.988754 31.988754 0 0 0-31.988754-31.988754h-127.955016v-127.955016a31.988754 31.988754 0 0 0-31.988754-31.988754h-127.955015a31.988754 31.988754 0 0 0-31.988754 31.988754v127.955016h-127.955016a31.988754 31.988754 0 0 0-31.988754 31.988754v127.955016a31.988754 31.988754 0 0 0 31.988754 31.988753z m816.093092 320.507322a79.791948 79.791948 0 0 0-111.820688-16.934046l-239.255886 176.29802H543.788916a31.988754 31.988754 0 0 1 0-63.977508h156.425006c31.988754 0 61.478387-21.73236 66.716545-53.201297a64.097466 64.097466 0 0 0-63.217775-74.733726h-319.887539a235.317271 235.317271 0 0 0-148.187903 52.481549l-92.967316 75.453474H31.988845a32.208677 32.208677 0 0 0-31.988754 31.988754v191.932524a32.208677 32.208677 0 0 0 31.988754 31.988753h693.756102a209.526338 209.526338 0 0 0 123.356632-40.525752L1119.06667 784.084345a79.971885 79.971885 0 0 0 16.934046-111.70073z" p-id="7625"></path></svg>