<?xml version="1.0" standalone="no"?><!DOCTYPE svg PUBLIC "-//W3C//DTD SVG 1.1//EN" "http://www.w3.org/Graphics/SVG/1.1/DTD/svg11.dtd"><svg t="1714407609290" class="icon" viewBox="0 0 1024 1024" version="1.1" xmlns="http://www.w3.org/2000/svg" p-id="7771" xmlns:xlink="http://www.w3.org/1999/xlink" width="200" height="200"><path d="M789.706 96c40.818 0 73.978 32.767 74.637 73.432l0.01 1.235V416c0 17.673-14.327 32-32 32-17.496 0-31.713-14.042-31.996-31.47l-0.004-0.53V170.667c0-5.8-4.617-10.513-10.364-10.663l-0.283-0.004H192.647c-5.782 0-10.493 4.62-10.643 10.382l-0.004 0.285v682.666c0 5.8 4.617 10.513 10.364 10.663l0.283 0.004h298.53c17.673 0 32 14.327 32 32 0 17.496-14.042 31.713-31.471 32H192.647c-40.818 0-73.978-32.767-74.637-73.432l-0.01-1.235V170.667c0-40.822 32.752-73.998 73.413-74.657l1.234-0.01h597.059z m-7.753 448C850.749 544 907 598.166 907 665.6c0 25.955-7.529 51.278-21.19 76.125-10.75 19.554-24.885 38.184-42.411 57.212a517.624 517.624 0 0 1-14.58 15.167l-2.233 2.227-1.136 1.124-2.312 2.274-1.178 1.151-1.385 1.345-7.194 6.923-10.298 9.858c-22.097 21.112-49.224 41.944-81.384 62.59a32 32 0 0 1-34.574 0c-32.679-20.979-60.162-42.15-82.45-63.613l-10.024-9.594-6.433-6.194-2.532-2.466-2.312-2.274c-0.381-0.376-0.76-0.75-1.136-1.124l-2.234-2.227a517.622 517.622 0 0 1-14.58-15.167c-17.525-19.028-31.66-37.658-42.411-57.212-13.66-24.847-21.19-50.17-21.19-76.125 0-67.434 56.252-121.6 125.048-121.6 28.617 0 55.664 9.44 77.307 26.002l0.233 0.18 0.235-0.18c21.325-16.318 47.895-25.723 76.045-25.996zM661.765 266.667c17.673 0 32 14.327 32 32 0 17.496-14.042 31.713-31.471 31.995l-0.53 0.005H320.589c-17.673 0-32-14.327-32-32 0-17.497 14.042-31.713 31.471-31.996l0.53-0.004h341.176z" p-id="7772"></path></svg>